<?xml version="1.0" standalone="no"?>
<!DOCTYPE svg PUBLIC "-//W3C//DTD SVG 20010904//EN"
 "http://www.w3.org/TR/2001/REC-SVG-20010904/DTD/svg10.dtd">
<svg version="1.0" xmlns="http://www.w3.org/2000/svg"
 width="990.000000pt" height="990.000000pt" viewBox="0 0 990.000000 990.000000"
 preserveAspectRatio="xMidYMid meet">
<metadata>
Created by potrace 1.14, written by Peter Selinger 2001-2017
</metadata>
<g transform="translate(0.000000,990.000000) scale(0.100000,-0.100000)"
fill="#000000" stroke="none">
<path d="M4749 9877 c-133 -45 -243 -134 -314 -252 -53 -89 -76 -173 -79 -288
-2 -75 -7 -103 -19 -118 -9 -10 -17 -24 -17 -30 0 -5 -4 -7 -10 -4 -5 3 -10 1
-10 -5 0 -6 -5 -8 -10 -5 -6 4 -10 3 -9 -2 4 -21 -2 -33 -16 -33 -8 0 -14 -3
-12 -8 1 -4 -10 -21 -25 -37 -16 -16 -28 -35 -28 -42 0 -7 -7 -10 -15 -7 -9 4
-15 0 -15 -10 0 -9 -5 -16 -11 -16 -5 0 -7 -4 -4 -10 3 -5 -1 -10 -9 -10 -9 0
-16 -4 -16 -9 0 -5 -18 -28 -40 -51 -22 -23 -40 -46 -40 -51 0 -5 -7 -9 -15
-9 -8 0 -14 -3 -14 -7 3 -20 -2 -34 -11 -28 -5 3 -10 2 -10 -4 0 -6 -24 -36
-52 -67 -29 -31 -52 -61 -51 -65 2 -5 -4 -9 -12 -9 -8 0 -15 -7 -15 -15 0 -8
-7 -15 -16 -15 -8 0 -13 -4 -10 -9 3 -5 -1 -11 -9 -15 -8 -3 -15 -10 -15 -16
0 -6 -13 -23 -28 -38 -16 -15 -31 -35 -35 -45 -3 -9 -14 -17 -23 -17 -11 0
-15 -6 -11 -20 3 -11 2 -18 -3 -15 -10 6 -60 -55 -60 -74 0 -8 -3 -12 -6 -8
-9 9 -84 -75 -84 -94 0 -5 -3 -8 -7 -6 -5 3 -17 -7 -28 -22 -19 -26 -19 -26 0
-11 20 14 20 14 1 -7 -10 -13 -23 -20 -29 -16 -6 4 -8 0 -4 -9 4 -11 -1 -18
-15 -21 -11 -3 -17 -10 -14 -15 3 -6 -1 -13 -10 -16 -8 -3 -12 -10 -9 -16 6
-9 -7 -14 -27 -11 -4 0 -5 -6 -2 -14 4 -8 1 -15 -6 -15 -6 0 -8 -4 -5 -10 3
-5 -1 -10 -9 -10 -9 0 -16 -4 -16 -10 0 -10 -27 -45 -66 -86 -12 -13 -19 -25
-17 -28 3 -3 -2 -8 -11 -12 -9 -3 -16 -12 -16 -20 0 -8 -7 -14 -16 -14 -8 0
-13 -4 -10 -8 3 -5 -5 -20 -17 -34 -12 -14 -29 -36 -37 -48 -8 -12 -21 -28
-27 -36 -7 -7 -13 -18 -13 -24 0 -6 -4 -8 -10 -5 -5 3 -10 1 -10 -6 0 -7 -10
-24 -22 -37 -13 -14 -17 -22 -9 -17 9 5 12 4 7 -3 -4 -7 -14 -12 -23 -12 -9 0
-14 -3 -10 -6 3 -4 -1 -13 -9 -21 -8 -8 -11 -19 -8 -25 4 -6 2 -8 -3 -5 -11 7
-40 -20 -45 -43 -2 -8 -18 -30 -35 -49 -18 -19 -33 -40 -33 -48 0 -8 -4 -11
-10 -8 -5 3 -10 0 -10 -7 0 -13 -30 -53 -72 -99 -10 -11 -19 -22 -20 -26 -2
-5 -6 -7 -11 -5 -4 1 -6 -1 -6 -5 3 -20 -2 -34 -11 -28 -5 3 -10 -1 -10 -10 0
-8 -7 -18 -15 -21 -8 -4 -12 -10 -9 -15 3 -5 0 -9 -7 -9 -7 0 -10 -3 -6 -6 5
-5 -10 -27 -41 -60 -7 -8 -11 -14 -8 -14 3 0 -2 -9 -12 -20 -9 -12 -17 -26
-17 -33 -1 -7 -6 -11 -13 -10 -6 2 -14 -8 -18 -21 -3 -14 -12 -27 -21 -30 -8
-3 -11 -10 -8 -16 3 -5 2 -10 -2 -10 -5 0 -24 -21 -41 -46 -18 -25 -27 -42
-20 -38 7 4 4 -3 -7 -14 -37 -38 -45 -51 -45 -67 0 -9 -3 -14 -7 -12 -8 5 -34
-17 -33 -28 1 -21 -2 -25 -15 -25 -9 0 -12 -6 -9 -15 4 -8 1 -15 -4 -15 -6 0
-19 -16 -28 -35 -9 -19 -20 -35 -25 -35 -5 0 -9 -9 -9 -21 0 -11 -4 -17 -10
-14 -5 3 -10 -3 -10 -15 0 -12 -4 -19 -9 -16 -7 5 -16 -12 -25 -44 -1 -6 -20
-30 -49 -61 -9 -10 -13 -19 -7 -19 5 0 7 -7 4 -15 -4 -8 -12 -15 -19 -15 -7 0
-19 -13 -27 -30 -7 -17 -16 -30 -20 -30 -5 0 -8 -5 -8 -11 0 -5 6 -7 13 -3 6
4 3 -2 -8 -13 -11 -11 -23 -19 -27 -16 -4 2 -5 -2 -2 -10 3 -8 -2 -21 -10 -30
-9 -9 -16 -20 -16 -26 0 -6 -7 -11 -16 -11 -8 0 -13 -4 -10 -9 8 -13 -4 -42
-15 -35 -5 3 -9 -2 -9 -12 0 -9 -8 -23 -18 -31 -9 -8 -11 -12 -5 -8 7 3 3 -9
-10 -28 -12 -19 -26 -32 -31 -29 -5 3 -6 0 -2 -7 4 -6 -2 -25 -14 -41 -12 -16
-18 -35 -15 -41 4 -6 -2 -13 -14 -16 -11 -3 -18 -10 -15 -15 3 -5 -3 -17 -13
-26 -10 -9 -19 -24 -18 -32 0 -8 -8 -23 -18 -33 -10 -10 -15 -22 -12 -26 2 -5
-2 -14 -10 -21 -8 -7 -15 -19 -15 -27 0 -8 -5 -11 -12 -7 -7 4 -8 3 -4 -5 4
-6 0 -18 -8 -26 -8 -9 -12 -23 -9 -32 4 -10 2 -14 -4 -10 -12 7 -36 -40 -27
-54 3 -5 0 -8 -7 -7 -7 2 -14 -1 -14 -7 -3 -29 -18 -55 -28 -49 -7 4 -9 4 -5
0 8 -10 -11 -66 -23 -66 -5 0 -9 -9 -9 -20 0 -11 -5 -20 -12 -20 -6 0 -9 -3
-5 -6 3 -4 0 -13 -8 -20 -7 -8 -12 -25 -11 -38 2 -18 -1 -23 -12 -18 -10 3
-13 1 -8 -6 4 -7 3 -12 -3 -12 -5 0 -8 -9 -6 -19 2 -11 -3 -22 -11 -25 -8 -3
-14 -17 -14 -31 0 -14 -4 -25 -10 -25 -5 0 -10 -7 -10 -15 0 -8 -5 -15 -11
-15 -5 0 -8 -4 -4 -9 3 -5 0 -15 -7 -23 -7 -7 -15 -24 -16 -38 -2 -14 -8 -27
-13 -28 -5 -2 -7 -8 -3 -13 3 -5 0 -9 -7 -9 -7 0 -9 -3 -6 -7 4 -3 1 -13 -6
-21 -10 -13 -9 -15 3 -8 9 4 8 2 -2 -7 -10 -8 -15 -17 -11 -20 3 -4 1 -7 -6
-7 -8 0 -11 -8 -8 -20 3 -11 1 -20 -4 -20 -15 0 -37 -64 -25 -72 7 -5 6 -8 -3
-8 -8 0 -11 -6 -7 -16 3 -8 2 -13 -3 -10 -11 7 -21 -17 -21 -49 0 -13 -8 -29
-17 -34 -10 -6 -14 -11 -9 -11 5 0 3 -7 -4 -15 -10 -12 -10 -15 0 -15 10 0 9
-5 -2 -17 -9 -10 -19 -34 -23 -53 -4 -19 -12 -41 -18 -48 -5 -7 -11 -31 -13
-53 -5 -48 -11 -62 -26 -53 -7 4 -8 2 -4 -5 4 -6 12 -8 18 -5 6 4 4 -3 -5 -17
-9 -13 -17 -36 -17 -51 0 -16 -6 -28 -12 -28 -9 0 -8 -4 2 -10 11 -7 11 -10 2
-10 -7 0 -11 -4 -8 -9 3 -5 -1 -14 -9 -21 -11 -9 -12 -16 -5 -25 8 -10 8 -15
-1 -20 -8 -6 -7 -10 2 -16 10 -6 11 -9 2 -9 -7 0 -13 -11 -13 -25 0 -14 -4
-25 -9 -25 -5 0 -8 -17 -6 -37 1 -21 -3 -41 -9 -45 -7 -5 -6 -8 3 -8 11 0 10
-4 -5 -16 -10 -8 -13 -13 -6 -9 15 8 16 -9 2 -36 -8 -14 -7 -19 2 -19 10 0 10
-2 0 -9 -8 -5 -14 -30 -15 -65 -1 -31 -6 -56 -11 -56 -4 0 -3 -7 4 -15 10 -12
10 -19 2 -27 -8 -8 -8 -17 -1 -30 6 -12 6 -24 -1 -37 -7 -14 -7 -22 1 -27 8
-4 7 -9 -2 -15 -11 -7 -11 -9 -1 -9 9 0 10 -5 2 -19 -7 -14 -7 -20 2 -23 8 -3
8 -9 0 -24 -8 -16 -8 -24 1 -34 9 -10 9 -14 -1 -17 -6 -3 -9 -9 -6 -15 4 -6 8
-51 9 -99 1 -49 4 -91 7 -95 4 -3 4 -13 1 -21 -3 -8 0 -19 8 -24 10 -6 10 -9
2 -9 -7 0 -13 -5 -13 -11 0 -5 6 -7 12 -3 8 5 7 0 -2 -11 -8 -10 -10 -16 -4
-12 7 4 11 -6 12 -26 8 -139 12 -171 24 -178 11 -7 11 -9 0 -9 -10 0 -10 -3 1
-15 11 -11 13 -24 7 -50 -4 -19 -4 -38 1 -40 5 -3 7 -19 5 -35 -2 -16 0 -27 5
-24 4 2 13 -4 19 -15 9 -17 8 -20 -6 -14 -15 5 -15 4 -2 -18 8 -13 13 -36 12
-51 0 -16 3 -28 8 -28 5 0 6 -4 3 -10 -3 -5 -2 -10 3 -10 6 0 8 -8 5 -19 -3
-10 0 -22 7 -26 8 -5 8 -10 -1 -21 -8 -10 -8 -14 0 -14 6 0 11 -12 11 -26 0
-14 4 -23 9 -20 5 3 9 -6 10 -19 1 -14 2 -36 3 -49 1 -14 6 -22 10 -20 4 3 8
-3 8 -13 0 -11 6 -25 13 -32 10 -11 9 -12 -2 -6 -10 6 -12 4 -5 -6 9 -15 11
-20 13 -45 0 -9 6 -12 13 -8 8 5 9 0 6 -14 -4 -12 -2 -24 2 -27 5 -3 7 -14 5
-25 -2 -12 2 -20 10 -20 9 0 12 -6 9 -15 -4 -8 -2 -15 4 -15 6 0 8 -8 5 -19
-2 -10 3 -26 12 -35 9 -9 14 -23 11 -31 -3 -8 -1 -15 4 -15 6 0 9 -3 8 -7 -4
-15 14 -53 22 -48 4 3 8 -1 7 -8 -1 -36 4 -57 13 -52 6 3 10 -4 10 -17 0 -13
4 -28 9 -34 5 -5 11 -18 13 -29 1 -11 9 -26 16 -34 7 -7 16 -26 19 -42 3 -16
10 -29 15 -29 5 0 6 -4 3 -10 -3 -5 -1 -10 4 -10 6 0 11 -3 10 -7 -2 -16 14
-53 22 -53 5 0 9 -9 9 -20 0 -11 4 -20 9 -20 5 0 12 -11 15 -24 3 -14 12 -31
19 -38 11 -12 40 -66 41 -79 1 -3 9 -13 19 -23 9 -10 15 -21 12 -26 -3 -5 3
-15 12 -22 10 -7 19 -20 21 -28 2 -8 10 -21 19 -27 10 -8 12 -13 5 -13 -8 0
-7 -6 3 -17 44 -51 66 -84 60 -93 -3 -5 1 -10 9 -10 9 0 16 -6 16 -14 0 -7 13
-27 29 -44 16 -16 27 -33 24 -36 -4 -3 0 -6 7 -6 7 0 10 -3 7 -6 -4 -4 3 -15
15 -25 11 -11 18 -19 15 -19 -3 0 5 -12 18 -26 14 -15 22 -30 19 -35 -3 -5 2
-6 10 -3 11 4 16 0 16 -10 0 -10 12 -28 26 -41 15 -14 24 -25 20 -25 -4 0 -1
-6 6 -14 7 -8 16 -12 21 -9 4 2 7 -3 7 -11 0 -9 5 -16 11 -16 5 0 8 -4 5 -8
-3 -5 6 -15 19 -22 13 -7 22 -17 19 -21 -2 -4 6 -15 18 -24 13 -8 23 -19 23
-23 0 -4 14 -22 32 -39 39 -38 14 -57 229 182 44 50 96 108 115 129 19 21 41
46 50 55 8 9 60 66 114 126 55 61 102 112 105 115 3 3 41 45 85 95 44 49 87
96 95 105 8 9 37 41 64 71 26 30 85 94 130 143 105 116 110 121 182 202 34 38
72 81 85 95 13 14 56 61 94 104 39 43 81 90 95 105 14 15 59 65 100 110 41 46
86 95 99 109 12 14 53 59 90 100 36 41 71 79 76 85 6 6 76 83 155 171 79 88
149 165 155 171 5 6 41 45 79 87 68 76 83 93 155 172 20 22 99 110 176 195 76
85 152 168 168 184 16 15 25 31 20 36 -7 6 -40 14 -153 36 -434 85 -900 178
-990 198 -36 8 -83 17 -106 20 -22 4 -55 11 -73 16 -17 5 -34 9 -36 9 -3 0
-18 2 -33 5 -35 7 -78 15 -122 22 -19 3 -44 8 -55 11 -11 4 -29 7 -40 8 -146
11 -268 84 -330 196 -25 46 -29 65 -29 129 0 55 6 87 21 120 21 44 32 57 132
165 25 28 84 93 131 145 47 52 90 100 95 106 6 6 39 43 75 83 36 40 76 85 90
100 14 15 63 69 110 121 47 52 92 101 100 110 8 8 49 54 90 100 41 47 78 87
81 90 3 3 72 79 154 170 81 91 167 185 189 210 38 40 200 219 281 310 67 74
150 165 160 176 5 6 42 46 80 89 86 96 79 89 140 155 45 50 200 220 250 276
11 12 46 51 77 85 31 35 69 78 84 94 16 17 65 71 109 120 44 48 89 98 100 110
11 13 52 58 90 101 39 43 93 103 122 134 29 31 62 67 73 80 32 37 152 171 175
195 83 87 175 195 166 195 -6 0 -11 4 -11 10 0 5 -14 23 -30 40 -17 17 -27 36
-24 42 4 6 3 8 -3 5 -13 -8 -36 17 -25 28 4 5 -1 5 -11 2 -10 -4 -16 -3 -12 3
3 5 -3 17 -15 27 -11 10 -20 23 -20 30 0 7 -6 13 -14 13 -8 0 -18 9 -21 20 -3
11 -11 20 -16 20 -6 0 -7 5 -4 10 3 6 -1 10 -9 10 -9 0 -16 3 -16 8 0 4 -11
20 -25 36 -14 16 -25 33 -25 38 0 5 -4 6 -10 3 -5 -3 -10 -1 -10 4 0 6 -14 24
-31 41 -18 16 -29 30 -26 30 4 0 -9 16 -29 35 -19 19 -32 35 -29 35 3 0 0 6
-7 14 -7 8 -16 12 -19 10 -4 -2 -10 8 -13 21 -4 14 -11 23 -16 20 -6 -4 -13 2
-17 12 -4 9 -17 27 -30 39 -12 11 -20 24 -16 27 3 4 -1 7 -10 7 -9 0 -17 4
-17 10 0 5 -16 25 -35 44 -19 20 -35 40 -35 46 0 6 -4 8 -10 5 -5 -3 -10 -3
-10 2 0 14 -47 63 -54 56 -3 -3 -6 -2 -6 4 0 5 -9 20 -20 33 -13 15 -20 38
-20 64 -3 261 -158 481 -399 563 -53 18 -88 22 -181 22 -93 0 -128 -4 -181
-22z"/>
<path d="M6480 7745 c-91 -101 -168 -181 -172 -179 -5 3 -8 -1 -8 -8 0 -7 -31
-46 -68 -85 -37 -40 -84 -93 -106 -117 -21 -25 -59 -67 -85 -95 -25 -27 -73
-80 -106 -117 -33 -37 -74 -83 -92 -102 -18 -19 -58 -64 -90 -100 -32 -36 -73
-81 -92 -101 -18 -20 -59 -65 -90 -100 -31 -35 -67 -76 -81 -91 -14 -14 -50
-53 -80 -86 -30 -32 -86 -95 -125 -139 -38 -44 -79 -89 -90 -101 -11 -11 -49
-53 -85 -93 -75 -85 -96 -108 -166 -182 -28 -30 -78 -85 -111 -124 -33 -38
-75 -86 -94 -106 -19 -20 -63 -69 -99 -109 -36 -40 -85 -94 -110 -120 -25 -26
-68 -74 -96 -106 -28 -33 -68 -77 -88 -99 -20 -22 -65 -71 -99 -109 -34 -37
-73 -81 -87 -96 -14 -15 -53 -58 -87 -96 -35 -38 -87 -96 -117 -129 -46 -50
-52 -61 -38 -67 9 -4 375 -78 812 -164 852 -167 876 -172 902 -185 10 -5 27
-9 38 -9 11 0 20 -4 20 -9 0 -5 11 -12 24 -15 44 -11 141 -118 152 -168 1 -5
3 -9 4 -10 4 -4 8 -36 13 -88 5 -63 -55 -190 -90 -190 -7 0 -13 -8 -13 -17 0
-10 -26 -46 -58 -80 -31 -34 -72 -79 -91 -100 -18 -21 -56 -63 -84 -93 -28
-30 -85 -93 -126 -140 -42 -47 -94 -103 -116 -126 -22 -23 -58 -63 -80 -89
-22 -27 -51 -60 -65 -75 -14 -14 -63 -68 -110 -120 -47 -51 -96 -106 -110
-121 -14 -15 -52 -57 -85 -95 -33 -37 -71 -80 -85 -94 -44 -48 -168 -184 -190
-210 -12 -14 -60 -67 -108 -119 -102 -110 -122 -133 -182 -202 -25 -28 -65
-73 -90 -99 -25 -26 -72 -78 -105 -116 -33 -38 -69 -78 -80 -89 -11 -12 -38
-41 -59 -66 -33 -37 -147 -162 -246 -270 -14 -14 -52 -57 -85 -94 -33 -38 -67
-76 -76 -85 -9 -9 -50 -55 -91 -101 -41 -46 -94 -105 -119 -131 -24 -26 -64
-70 -89 -99 -25 -28 -50 -57 -55 -63 -6 -6 -42 -45 -80 -86 -39 -42 -99 -108
-135 -149 -36 -40 -89 -98 -117 -129 l-53 -56 30 -14 c16 -8 27 -18 24 -23 -5
-9 9 -13 33 -10 7 1 10 -7 8 -20 -4 -18 -2 -19 12 -7 12 9 15 9 9 0 -5 -8 0
-12 13 -12 12 0 20 -3 20 -7 -3 -19 2 -27 10 -15 6 10 11 9 22 -4 12 -15 12
-17 0 -9 -9 5 -12 4 -7 -3 4 -6 14 -8 23 -5 12 5 14 3 8 -7 -5 -8 -4 -11 2 -7
6 4 21 -2 33 -13 12 -11 26 -17 30 -15 4 3 11 -2 14 -11 3 -8 10 -13 16 -9 5
3 15 -3 22 -15 7 -11 21 -20 30 -20 10 0 18 -4 18 -9 0 -5 16 -15 35 -21 19
-6 35 -16 35 -22 0 -6 9 -8 19 -5 12 3 22 -1 25 -9 3 -8 12 -14 21 -14 8 0 15
-4 15 -10 0 -5 9 -10 20 -10 11 0 20 -5 20 -11 0 -5 4 -8 9 -4 5 3 15 -1 23
-8 13 -14 19 -17 50 -25 10 -2 18 -9 18 -15 0 -6 3 -7 7 -4 3 4 15 -1 26 -10
13 -12 17 -13 12 -4 -5 9 4 6 22 -7 17 -12 33 -19 36 -16 3 4 13 -1 22 -10 9
-9 21 -14 26 -11 5 4 9 1 9 -4 0 -6 9 -11 21 -11 11 0 18 -4 15 -8 -4 -7 10
-11 52 -14 6 -1 12 -5 12 -10 0 -4 5 -8 11 -8 5 0 7 6 3 13 -4 6 4 2 17 -9 13
-12 30 -19 37 -17 6 3 12 0 12 -7 0 -6 5 -8 10 -5 6 3 16 3 23 -2 13 -8 31
-13 62 -16 11 -1 26 -8 33 -15 8 -7 17 -10 22 -7 5 3 11 1 15 -5 4 -6 11 -8
16 -4 5 3 17 0 26 -8 12 -9 15 -9 9 -1 -5 9 -2 11 8 7 9 -3 14 -9 11 -13 -4
-8 7 -10 68 -11 20 -1 37 -5 37 -11 0 -5 9 -9 20 -9 11 0 20 -6 20 -12 0 -10
3 -9 9 1 6 9 11 10 15 3 4 -6 13 -9 21 -5 9 3 23 -1 32 -8 11 -10 14 -10 9 -2
-5 9 -2 11 8 7 9 -3 16 -9 16 -13 0 -4 8 -7 18 -8 66 -3 99 -8 111 -17 11 -8
13 -8 8 1 -5 8 0 11 13 10 11 -1 20 -8 20 -16 0 -11 4 -10 16 5 8 10 13 13 9
7 -6 -13 6 -17 33 -14 8 1 19 -2 26 -8 7 -6 17 -6 26 -1 7 4 23 5 34 1 12 -4
36 -6 55 -4 20 2 38 -2 43 -9 4 -7 8 -8 8 -3 0 12 40 13 58 1 8 -4 12 -1 12
11 0 14 2 15 9 4 5 -7 14 -11 20 -7 7 5 9 1 5 -11 -5 -17 -5 -17 8 -1 13 15
15 15 27 0 10 -14 11 -14 7 -1 -4 17 27 20 41 4 5 -4 2 -5 -4 -1 -9 5 -11 2
-6 -10 5 -14 8 -13 20 7 l14 24 -5 -23 c-3 -18 -2 -21 9 -12 19 16 55 21 55 7
0 -8 3 -8 8 -2 4 6 15 11 26 13 14 3 17 -1 12 -13 -3 -9 -2 -13 4 -10 6 3 10
12 10 19 0 17 54 14 62 -4 5 -11 7 -10 7 5 1 17 3 17 11 5 5 -8 10 -10 10 -5
0 6 21 10 48 10 26 0 50 5 54 10 5 7 8 7 8 0 0 -8 48 -10 113 -6 5 1 5 7 1 14
-5 8 -2 8 9 -2 11 -8 17 -9 17 -3 0 6 7 9 15 6 8 -4 15 -1 15 6 0 10 3 10 14
1 11 -9 16 -9 21 0 6 8 10 7 16 -2 5 -9 9 -10 9 -3 0 7 15 13 33 13 60 2 86 7
94 15 5 5 1 6 -7 1 -8 -5 -12 -4 -7 0 4 5 29 10 55 12 66 5 72 6 72 13 0 3 8
6 18 7 9 1 31 5 47 8 17 3 37 7 45 7 8 1 18 6 21 11 4 5 25 10 47 11 22 0 38
4 35 8 -2 5 5 8 16 8 12 0 21 3 21 8 0 4 11 8 25 8 43 3 76 14 70 24 -3 6 1 7
10 4 8 -4 21 -2 28 4 6 5 22 8 34 7 12 -1 20 2 18 6 -7 10 22 19 40 13 8 -4
15 -2 15 4 0 6 17 16 38 23 20 7 46 18 57 25 11 7 22 13 25 14 30 4 49 14 43
23 -3 5 -2 7 4 4 5 -3 35 7 66 22 31 16 57 26 57 24 0 -2 7 3 16 11 8 9 20 14
25 11 5 -4 9 -1 9 4 0 6 7 11 15 11 8 0 24 9 34 19 14 14 21 16 25 8 3 -9 5
-9 5 1 1 6 8 12 16 12 9 0 18 6 21 14 3 7 16 12 29 10 14 -1 23 3 22 9 -1 7 4
11 11 9 6 -1 12 2 12 8 0 5 6 10 14 10 8 0 16 4 18 9 2 5 9 11 17 13 8 2 23
11 33 21 10 10 24 15 30 11 7 -4 8 -3 4 4 -6 11 6 16 19 10 2 -2 12 7 20 20 9
12 23 22 31 22 8 0 14 5 14 10 0 6 5 10 11 10 11 0 46 25 102 73 17 15 40 30
49 33 10 3 16 10 13 15 -4 5 1 9 9 9 8 0 20 8 25 18 6 9 11 13 11 9 0 -4 13 5
28 20 35 34 75 68 82 68 3 0 25 20 50 45 25 25 48 44 53 42 4 -1 7 2 7 8 0 5
9 19 20 30 11 11 20 18 20 15 0 -3 8 3 18 12 11 10 17 21 16 24 -2 3 8 11 21
17 14 7 25 18 25 27 0 8 4 15 9 15 8 0 47 37 99 93 9 11 16 23 14 28 -1 5 4 9
12 9 8 0 17 9 21 20 3 11 18 29 32 40 14 11 23 20 19 20 -4 0 8 14 26 31 18
18 26 28 18 24 -8 -4 -5 2 7 14 12 11 27 21 33 21 6 0 8 4 5 10 -3 5 3 17 15
27 11 10 20 21 20 25 0 7 21 36 48 63 6 8 12 18 12 23 0 6 7 13 16 16 8 3 12
10 9 16 -3 6 1 13 9 16 9 3 16 14 16 24 0 10 9 22 20 25 11 4 17 11 14 16 -3
6 3 19 15 30 12 11 21 26 21 33 0 8 7 19 15 26 8 7 12 16 9 21 -3 5 -1 9 4 9
5 0 15 12 23 28 8 15 16 29 19 32 11 11 45 84 43 92 -2 4 4 8 13 8 8 0 13 4
10 9 -3 5 1 14 9 21 8 7 12 16 9 21 -3 5 1 12 10 15 8 3 12 12 9 20 -3 8 0 14
7 14 6 0 8 5 5 10 -3 6 -2 10 4 10 5 0 12 13 16 30 4 17 11 30 16 30 6 0 7 5
4 10 -3 6 -1 10 5 10 7 0 10 6 8 12 -3 7 1 19 9 26 7 7 13 22 13 33 0 10 5 19
11 19 5 0 7 5 4 10 -3 6 -1 10 4 10 6 0 11 7 11 15 0 9 6 28 14 43 8 15 16 36
18 47 1 11 11 29 20 39 10 10 15 23 12 27 -3 5 2 22 11 39 9 17 13 35 10 40
-3 6 -1 10 5 10 6 0 9 4 5 9 -3 6 0 13 7 18 7 4 14 17 14 28 2 32 8 49 19 57
6 4 10 22 10 40 1 23 5 32 15 30 11 -2 11 0 1 11 -9 12 -8 16 3 20 9 4 13 15
11 27 -2 11 1 20 7 20 7 0 6 6 -2 15 -9 11 -9 15 -1 15 7 0 9 4 6 10 -3 6 -1
10 5 10 6 0 9 4 5 9 -3 5 -1 12 5 16 5 3 10 22 10 41 0 19 5 34 10 34 6 0 10
5 10 11 0 5 -6 7 -12 3 -7 -4 -6 1 3 12 9 10 15 29 14 42 -1 13 2 25 7 28 5 3
3 13 -4 22 -7 9 -8 13 -2 9 14 -8 31 46 29 91 -1 17 2 32 5 32 4 0 6 14 4 31
-2 18 0 28 6 24 6 -4 10 6 11 22 1 35 6 63 13 70 3 3 1 14 -5 24 -7 14 -6 19
2 19 9 0 9 3 0 14 -9 11 -9 16 0 22 8 5 9 3 4 -6 -5 -9 -4 -11 4 -6 8 6 9 12
2 20 -6 7 -8 16 -4 20 9 8 12 33 17 122 2 40 7 77 10 83 4 6 4 11 -1 11 -4 0
-8 20 -8 44 0 24 3 42 7 40 4 -2 9 0 13 6 3 5 2 10 -4 10 -5 0 -9 13 -9 30 1
16 4 27 8 25 4 -2 7 3 7 11 0 9 -6 13 -15 9 -12 -4 -13 -3 -2 10 7 8 9 15 5
15 -4 0 -1 8 6 17 10 11 10 14 2 9 -7 -4 -13 -2 -13 3 0 6 5 11 12 11 6 0 3 9
-8 21 -14 15 -15 20 -4 17 8 -2 18 -7 22 -13 5 -6 8 -6 8 1 0 6 -6 17 -14 23
-15 13 -16 28 -2 49 4 7 3 19 -4 27 -7 8 -10 21 -7 29 3 7 0 19 -6 26 -10 10
-8 12 8 6 20 -6 20 -6 1 9 -11 8 -14 15 -7 15 7 0 10 4 6 10 -3 5 -7 37 -10
72 -5 78 -15 140 -26 153 -4 6 -4 17 1 25 5 9 5 19 -2 27 -5 7 -8 20 -4 28 3
8 1 15 -4 15 -6 0 -10 5 -10 11 0 5 6 7 13 3 6 -4 4 2 -6 14 -12 13 -19 38
-20 70 -1 28 -5 48 -9 45 -8 -4 -12 12 -9 36 2 7 -2 11 -6 8 -5 -3 -8 8 -7 24
1 19 -3 32 -13 36 -12 5 -12 7 -1 14 11 7 11 9 -1 9 -7 0 -11 6 -7 15 3 8 1
15 -5 15 -6 0 -7 5 -3 11 7 11 -14 59 -31 71 -6 5 -5 8 4 8 11 0 11 3 1 15 -7
8 -9 15 -5 15 4 0 2 7 -5 15 -7 8 -9 15 -4 15 5 0 3 4 -3 8 -7 5 -14 20 -15
35 -1 15 -7 27 -13 27 -5 0 -3 5 5 10 13 9 13 10 0 11 -8 1 -17 1 -20 1 -3 0
-4 17 -4 38 1 23 -3 38 -8 37 -13 -2 -30 52 -21 66 4 6 0 8 -9 5 -11 -5 -14 1
-13 23 1 16 -2 29 -7 29 -4 0 -8 7 -8 16 0 8 -4 13 -8 10 -7 -4 -11 10 -14 52
-1 6 -5 12 -10 12 -4 0 -8 5 -8 12 0 6 -8 20 -17 31 -13 15 -14 18 -3 12 12
-7 11 -3 -2 18 -10 14 -18 33 -18 42 0 8 -3 15 -8 15 -4 0 -13 9 -20 21 -9 13
-9 18 -2 14 13 -8 -9 36 -24 46 -5 4 -6 12 -2 18 4 5 -2 19 -14 31 -11 11 -19
21 -19 23 4 6 -13 47 -20 47 -4 0 -8 6 -9 13 -2 26 -8 47 -17 54 -4 4 -5 2 0
-6 6 -10 4 -12 -4 -7 -7 5 -10 14 -7 22 3 8 -1 17 -9 20 -8 4 -13 9 -10 13 2
4 -6 23 -17 42 -12 19 -23 40 -24 47 -1 8 -9 21 -17 30 -14 17 -28 49 -24 55
1 2 -6 11 -15 21 -10 10 -18 24 -18 32 0 8 -5 14 -10 14 -6 0 -10 8 -8 18 2
11 -2 16 -12 14 -8 -2 -12 0 -8 4 7 7 -19 63 -35 75 -5 3 -8 9 -8 13 3 19 0
27 -8 22 -5 -4 -12 7 -16 24 -4 16 -13 30 -20 30 -8 0 -12 6 -9 14 3 7 -1 20
-9 28 -8 8 -18 24 -21 36 -4 12 -11 20 -16 17 -11 -7 -23 32 -14 46 4 8 3 9
-4 5 -13 -8 -35 28 -24 39 4 5 1 5 -5 1 -8 -4 -13 -1 -13 8 0 9 -4 16 -10 16
-5 0 -10 6 -10 14 0 8 -5 16 -10 18 -6 2 -12 13 -13 25 0 12 -3 20 -6 18 -8
-9 -91 128 -84 138 4 6 0 8 -11 4 -9 -4 -14 -3 -11 2 3 5 0 13 -6 16 -5 4 -8
13 -5 21 3 8 -1 14 -10 14 -8 0 -12 5 -9 10 3 6 1 10 -4 10 -6 0 -11 7 -11 15
0 8 -4 15 -10 15 -5 0 -10 7 -10 15 0 9 -7 18 -15 21 -8 4 -12 10 -10 15 3 5
-3 16 -15 26 -11 10 -20 26 -20 36 0 10 -4 15 -10 12 -5 -3 -10 1 -10 10 0 8
-7 18 -15 21 -8 4 -15 12 -15 19 0 8 -8 21 -17 31 -10 9 -18 23 -19 30 -1 7
-14 24 -28 37 -14 13 -23 26 -21 29 3 3 -6 17 -20 32 -14 15 -25 31 -25 37 0
5 -5 9 -11 9 -5 0 -7 5 -4 10 3 6 1 10 -5 10 -6 0 -8 5 -5 10 3 6 -1 10 -10
10 -9 0 -13 5 -10 10 3 6 1 10 -6 10 -7 0 -10 3 -6 6 6 6 -2 19 -40 60 -13 14
-23 27 -23 29 0 3 0 8 0 13 0 4 -14 21 -30 39 -17 18 -30 37 -30 42 0 6 -6 11
-13 11 -6 0 -18 13 -25 29 -7 16 -24 42 -37 57 -14 16 -25 33 -25 37 0 5 -4 5
-10 2 -5 -3 -10 3 -10 14 0 12 -5 21 -11 21 -5 0 -8 4 -5 8 3 5 -6 15 -20 22
-18 10 -21 16 -12 22 9 5 7 8 -6 8 -11 0 -17 3 -13 6 5 5 -10 27 -40 59 -7 8
-13 18 -13 24 0 6 -4 11 -9 11 -5 0 -13 9 -16 20 -4 11 -11 18 -16 15 -5 -4
-9 0 -9 8 0 8 -11 30 -24 50 -13 19 -22 38 -20 41 2 3 1 4 -2 1 -8 -5 -38 32
-47 58 -3 9 -11 17 -17 17 -5 0 -10 6 -11 13 0 6 -13 22 -28 34 l-27 21 -164
-183z m-1617 -2140 c-3 -9 -8 -14 -10 -11 -3 3 -2 9 2 15 9 16 15 13 8 -4z
m-122 -138 c-10 -9 -11 -8 -5 6 3 10 9 15 12 12 3 -3 0 -11 -7 -18z m-131
-140 c0 -2 -10 -12 -22 -23 l-23 -19 19 23 c18 21 26 27 26 19z m-70 -80 c0
-2 -10 -12 -22 -23 l-23 -19 19 23 c18 21 26 27 26 19z m365 -237 c3 -6 -1 -7
-9 -4 -18 7 -21 14 -7 14 6 0 13 -4 16 -10z m132 -26 c-3 -3 -12 -4 -19 -1 -8
3 -5 6 6 6 11 1 17 -2 13 -5z m100 -20 c-3 -3 -12 -4 -19 -1 -8 3 -5 6 6 6 11
1 17 -2 13 -5z m790 -160 c-3 -3 -12 -4 -19 -1 -8 3 -5 6 6 6 11 1 17 -2 13
-5z m460 -376 c-3 -8 -6 -5 -6 6 -1 11 2 17 5 13 3 -3 4 -12 1 -19z m-566
-721 c-10 -9 -11 -8 -5 6 3 10 9 15 12 12 3 -3 0 -11 -7 -18z m-98 -102 c-3
-9 -8 -14 -10 -11 -3 3 -2 9 2 15 9 16 15 13 8 -4z m-33 -38 c0 -2 -10 -12
-22 -23 l-23 -19 19 23 c18 21 26 27 26 19z m-70 -80 c0 -2 -10 -12 -22 -23
l-23 -19 19 23 c18 21 26 27 26 19z m-277 -302 c-3 -9 -8 -14 -10 -11 -3 3 -2
9 2 15 9 16 15 13 8 -4z m-43 -49 c0 -2 -8 -10 -17 -17 -16 -13 -17 -12 -4 4
13 16 21 21 21 13z m-60 -70 c0 -2 -8 -10 -17 -17 -16 -13 -17 -12 -4 4 13 16
21 21 21 13z m-90 -100 c0 -2 -7 -7 -16 -10 -8 -3 -12 -2 -9 4 6 10 25 14 25
6z m-90 -100 c0 -2 -8 -10 -17 -17 -16 -13 -17 -12 -4 4 13 16 21 21 21 13z
m-610 -670 c0 -2 -8 -10 -17 -17 -16 -13 -17 -12 -4 4 13 16 21 21 21 13z
m-170 -189 c0 -2 -10 -12 -22 -23 l-23 -19 19 23 c18 21 26 27 26 19z m-110
-120 c0 -2 -10 -12 -22 -23 l-23 -19 19 23 c18 21 26 27 26 19z m-50 -60 c0
-2 -10 -12 -22 -23 l-23 -19 19 23 c18 21 26 27 26 19z m-57 -62 c-3 -9 -8
-14 -10 -11 -3 3 -2 9 2 15 9 16 15 13 8 -4z m-253 -278 c0 -2 -10 -12 -22
-23 l-23 -19 19 23 c18 21 26 27 26 19z m-120 -131 c0 -2 -8 -10 -17 -17 -16
-13 -17 -12 -4 4 13 16 21 21 21 13z m-40 -50 c0 -2 -8 -10 -17 -17 -16 -13
-17 -12 -4 4 13 16 21 21 21 13z m-109 -119 c-10 -9 -11 -8 -5 6 3 10 9 15 12
12 3 -3 0 -11 -7 -18z m-76 -87 c-3 -5 -12 -10 -18 -10 -7 0 -6 4 3 10 19 12
23 12 15 0z m-35 -34 c0 -2 -8 -10 -17 -17 -16 -13 -17 -12 -4 4 13 16 21 21
21 13z m-360 -399 c0 -2 -10 -12 -22 -23 l-23 -19 19 23 c18 21 26 27 26 19z"/>
<path d="M5075 20 c-3 -5 -1 -10 4 -10 6 0 11 5 11 10 0 6 -2 10 -4 10 -3 0
-8 -4 -11 -10z"/>
<path d="M4956 12 c-3 -5 1 -9 9 -9 8 0 12 4 9 9 -3 4 -7 8 -9 8 -2 0 -6 -4
-9 -8z"/>
</g>
</svg>
